<svg width="500" height="180" xmlns="http://www.w3.org/2000/svg">

 <g>
  <title>background</title>
  <rect fill="none" id="canvas_background" height="182" width="502" y="-1" x="-1"/>
 </g>
 <g>
  <title>Layer 1</title>
  <g stroke="null" id="svg_1">
   <polygon stroke="null" id="svg_2" points="-20,-74.00001784542701 521.7560424804688,-74.00001784542701 521.7560424804688,276.7560119628906 -20,276.7560119628906 -20,-74.00001784542701 " fill="#FFFFFF" clip-rule="evenodd" fill-rule="evenodd"/>
   <path stroke="null" id="svg_3" d="m396.485694,174.633223c-51.492623,0 -94.016688,-24.860595 -100.511937,-57.050898l-37.332925,-0.014558l0,56.403088l-60.652301,0l0,-67.115599l-105.312406,68.185576c-51.279019,-1.783295 -88.772147,-33.55689 -88.772147,-47.479332l0,-88.531522l63.960353,0l0,78.892628c1.652621,8.210438 22.605489,14.994239 36.391381,14.994239s35.837697,-6.785621 37.493128,-14.994239l0,-78.892628l63.960353,0l0,14.99242l76.641687,-49.264447l120.753729,0l-60.652301,39.268894l-83.811475,0l0,30.701797l96.489998,0l46.888894,-31.264081c53.409438,1.859722 95.837944,30.490713 95.837944,65.534289c-0.002811,36.24821 -45.388045,65.634372 -101.371974,65.634372l0,0zm0,-39.883949c21.961867,0 39.766887,-11.529551 39.766887,-25.748603s-17.80502,-25.746783 -39.766887,-25.746783s-39.766887,11.527731 -39.766887,25.746783s17.802209,25.748603 39.766887,25.748603l0,0z" clip-rule="evenodd" fill-rule="evenodd"/>
  </g>
 </g>
</svg>