<?xml version="1.0" standalone="no"?>
<!DOCTYPE svg PUBLIC "-//W3C//DTD SVG 20010904//EN"
 "http://www.w3.org/TR/2001/REC-SVG-20010904/DTD/svg10.dtd">
<svg version="1.0" xmlns="http://www.w3.org/2000/svg"
 width="700.000000pt" height="700.000000pt" viewBox="0 0 700.000000 700.000000"
 preserveAspectRatio="xMidYMid meet">
<metadata>
Created by potrace 1.11, written by Peter Selinger 2001-2013
</metadata>
<g transform="translate(0.000000,700.000000) scale(0.100000,-0.100000)"
fill="#000000" stroke="none">
<path d="M3308 5780 c-474 -75 -866 -393 -1035 -840 -14 -36 -37 -112 -51
-170 l-26 -105 -3 -660 c-5 -699 -1 -782 41 -938 l22 -85 -76 38 c-302 152
-566 416 -705 705 -180 375 -210 881 -81 1350 14 49 24 91 22 92 -5 6 -214
-97 -326 -160 -448 -253 -766 -562 -940 -912 -161 -323 -191 -628 -95 -960 51
-176 187 -419 320 -570 295 -335 668 -588 1165 -787 1360 -547 3181 -457 4374
216 237 134 426 277 609 463 363 367 527 800 462 1223 -22 149 -60 263 -135
415 -174 350 -490 657 -941 912 -117 67 -320 166 -326 160 -2 -3 8 -44 22 -93
132 -457 96 -1004 -92 -1372 -144 -283 -400 -535 -692 -682 l-77 -38 23 91
c41 160 44 247 40 932 -3 626 -4 654 -25 747 -115 508 -495 895 -992 1009
-106 24 -379 35 -482 19z m357 -877 c112 -27 202 -80 296 -173 71 -70 94 -100
128 -171 69 -144 86 -275 55 -427 -49 -244 -242 -445 -489 -507 -75 -19 -231
-19 -313 0 -181 43 -351 181 -432 350 -93 195 -93 393 1 585 33 67 59 102 123
166 88 87 155 130 256 164 122 41 245 45 375 13z"/>
<path d="M3405 4462 c-51 -25 -79 -55 -106 -116 -39 -90 -6 -201 79 -261 40
-27 51 -30 121 -30 68 0 83 3 119 27 128 85 130 274 4 362 -56 39 -154 47
-217 18z"/>
<path d="M1104 1534 c-13 -63 -7 -204 11 -274 46 -177 178 -341 335 -418 47
-23 112 -49 145 -57 76 -19 234 -19 310 0 81 20 210 86 265 133 l44 39 -69 23
c-378 125 -771 344 -992 553 l-42 40 -7 -39z"/>
<path d="M5827 1521 c-246 -215 -614 -420 -952 -531 -38 -12 -74 -26 -78 -30
-13 -12 89 -89 168 -126 99 -47 174 -64 285 -64 116 0 189 17 300 72 157 77
289 240 335 418 19 70 24 248 8 288 -9 22 -10 22 -66 -27z"/>
<path d="M2870 800 c0 -6 15 -44 34 -85 80 -173 217 -295 401 -357 101 -33
289 -33 390 0 145 48 273 146 354 271 40 63 86 169 77 179 -3 2 -45 0 -93 -6
-198 -25 -413 -34 -648 -28 -217 6 -297 11 -462 32 -38 4 -53 3 -53 -6z"/>
</g>
</svg>
